<svg xmlns="http://www.w3.org/2000/svg" viewBox="0 0 57.5 39.81"><defs><style>.cls-1{fill:#fff;}</style></defs><title>btn-search</title><g id="Calque_2" data-name="Calque 2"><g id="Calque_1-2" data-name="Calque 1"><path class="cls-1" d="M31.82,14.4a4.33,4.33,0,1,0,4.36,4.31A4.29,4.29,0,0,0,31.82,14.4Z"/><path class="cls-1" d="M50.37,0H7.13A7.13,7.13,0,0,0,0,7.13V32.67a7.13,7.13,0,0,0,7.13,7.13H50.37a7.13,7.13,0,0,0,7.13-7.13V7.13A7.13,7.13,0,0,0,50.37,0ZM39.24,21.21a7.79,7.79,0,0,1-10.9,4.5.15.15,0,0,0-.21,0l-.89.9L25,28.91a2.44,2.44,0,0,1-1.19.8l-.32.08h-.42a2.69,2.69,0,0,1-.87-.3,2,2,0,0,1-1-1.76,2.09,2.09,0,0,1,.69-1.53c1.08-1.05,2.13-2.13,3.2-3.19a.15.15,0,0,0,0-.22,7.5,7.5,0,0,1-.85-2,8,8,0,0,1-.22-3.07,7.76,7.76,0,0,1,1.06-3.06,7.68,7.68,0,0,1,1.94-2.16A7.78,7.78,0,0,1,30.61,11l.83-.11h.78L33,11a7.67,7.67,0,0,1,2.78.94,7.59,7.59,0,0,1,2.72,2.59A7.75,7.75,0,0,1,39.65,19,7.85,7.85,0,0,1,39.24,21.21Z"/></g></g></svg>