<svg xmlns="http://www.w3.org/2000/svg" viewBox="0 0 69 69.02"><defs><style>.cls-1{fill:#fff;}</style></defs><title>infos-pos</title><g id="Calque_2" data-name="Calque 2"><g id="Calque_1-2" data-name="Calque 1"><g id="GHpCnc.tif"><path class="cls-1" d="M36.77,69H32.23c-1.25-.15-2.5-.26-3.74-.49a33.53,33.53,0,0,1-19.72-11A33.67,33.67,0,0,1,.4,29.4,33.07,33.07,0,0,1,10.58,9.66a33.87,33.87,0,0,1,27-9.54,32.35,32.35,0,0,1,13.31,4,34.18,34.18,0,0,1,17,21.51A37.84,37.84,0,0,1,69,32.24v4.54c-.16,1.45-.32,2.89-.59,4.33a34.56,34.56,0,0,1-25.73,27A42.94,42.94,0,0,1,36.77,69ZM35.49,44.25c0,1.82,0,3.64,0,5.46,0,.47.12.68.64.68q7.21-.06,14.43-.09a.69.69,0,0,0,.75-.53,47.66,47.66,0,0,0,2.4-13.45c0-.78,0-.78-.78-.78l-16.59.09h-.05c-.52-.06-.68.17-.69.68C35.55,38.95,35.49,41.6,35.49,44.25ZM24.83,35.64c-2.51-.05-5.89.07-9.28.09-.69,0-.71,0-.7.75,0,1,.11,2.08.21,3.12A46.63,46.63,0,0,0,17.2,49.72a.94.94,0,0,0,1.06.78c4.52-.06,9-.08,13.56-.11H32c.39,0,.55-.16.55-.55,0-.72.06-1.44.06-2.16,0-3.8,0-7.6,0-11.4,0-.5-.19-.65-.67-.65C29.89,35.65,27.8,35.64,24.83,35.64Zm19.75-3v0h8.48c.61,0,.66-.07.61-.65-.1-1.06-.18-2.12-.28-3.17a44.58,44.58,0,0,0-2-9.42.67.67,0,0,0-.74-.53c-4.75,0-9.51,0-14.26.09-.48,0-.63.19-.62.64q0,1.4,0,2.81c-.1,3.24-.07,6.48-.09,9.72,0,.4.08.57.54.56C39,32.67,41.77,32.68,44.58,32.68Zm-20.8.09v0H32c.42,0,.68-.06.68-.58,0-4.21-.06-8.43.1-12.64,0-.39-.13-.55-.53-.55-4.83,0-9.65-.06-14.48.08a.63.63,0,0,0-.68.48A46.86,46.86,0,0,0,14.86,32c0,.73,0,.75.76.75Zm37.6,2.73v0c-1.39,0-2.78,0-4.16,0-.48,0-.64.17-.62.63a19.92,19.92,0,0,1-.09,2A48.76,48.76,0,0,1,54.38,49.7c-.16.51,0,.58.47.58,2.18,0,4.36,0,6.54,0a.84.84,0,0,0,.84-.52,32.56,32.56,0,0,0,1.87-4.07,31.22,31.22,0,0,0,2-9.32c0-.87.07-.87-.79-.87ZM25.64,16.1v0c2.18,0,4.36,0,6.54,0,.49,0,.67-.17.66-.66,0-1.06,0-2.13,0-3.19q0-4.32.11-8.65c0-.47-.11-.63-.63-.54A13.6,13.6,0,0,0,27,5.18c-3.87,2.6-6.39,6.28-8.35,10.41-.22.47,0,.51.4.51Zm9.77,43.51h0q0,2.89,0,5.78c0,.65.1.72.74.61a15,15,0,0,0,8.14-4.39,27,27,0,0,0,5.43-7.87c.22-.47.2-.5-.4-.5-4.39,0-8.79,0-13.18,0-.51,0-.7.16-.69.68C35.43,55.83,35.41,57.72,35.41,59.61ZM42.82,16v0h6.54c.35,0,.65,0,.41-.5a25.75,25.75,0,0,0-7.25-9.55,14.19,14.19,0,0,0-6-2.82c-.65-.13-.69-.1-.69.54q-.05,5.7-.1,11.4c0,1,0,1,1,1ZM7.42,35.73h0c-1.26,0-2.52,0-3.78,0-.5,0-.76.13-.68.67,0,.37.07.75.1,1.13A31.44,31.44,0,0,0,7,50a.85.85,0,0,0,.87.49c1.93,0,3.86,0,5.78,0,.79,0,.78,0,.55-.75a49.32,49.32,0,0,1-1.88-8.86c-.18-1.5-.29-3-.35-4.52,0-.49-.23-.65-.71-.64C9.95,35.75,8.69,35.73,7.42,35.73Zm51.31-3.1v-.08c2,0,4,0,5.94,0,1.32,0,1.47.33,1.28-1.38A33.11,33.11,0,0,0,62.65,20c-.46-.92-.95-1.54-2.07-1.21a1.22,1.22,0,0,1-.32,0c-1.8,0-3.6,0-5.4,0-.46,0-.62.1-.45.59.23.64.4,1.31.57,2a51.42,51.42,0,0,1,1.61,10.65c0,.41.15.59.57.57S58.21,32.63,58.73,32.63ZM25.66,53.31v.07H19.18c-.38,0-.49.08-.31.46a27.07,27.07,0,0,0,5.71,8.07,15,15,0,0,0,7.13,4c.64.14.7.09.71-.59,0-1,0-2,0-3,.09-2.84,0-5.69,0-8.54,0-.29-.11-.41-.42-.41ZM7.19,32.85v0c1.32,0,2.63,0,3.95,0,.79,0,.8-.1.83-.87s.06-1.55.13-2.32a49.93,49.93,0,0,1,2-10c.14-.45,0-.57-.42-.57-2,0-4,0-5.95,0a1.13,1.13,0,0,0-1.17.72A32.58,32.58,0,0,0,3,32.17c-.05.59,0,.68.65.68Zm39.05,31A30.81,30.81,0,0,0,60,53.26a1,1,0,0,0-.64-.1c-1.73,0-3.46,0-5.18,0a1.33,1.33,0,0,0-1.47,1,30.13,30.13,0,0,1-4.63,7.63C47.47,62.46,46.85,63.13,46.25,63.81Zm0-58.55c.56.61,1.13,1.2,1.67,1.83a31.83,31.83,0,0,1,5,8.25.89.89,0,0,0,1,.64c1.87-.14,3.75-.06,5.62-.09.14,0,.29,0,.45-.13A30.68,30.68,0,0,0,46.24,5.25ZM22.1,5.48l-.35.11A31.64,31.64,0,0,0,9.08,15.75c-.07.1-.2.2-.15.33s.25.11.38.11l5.56-.07a.6.6,0,0,0,.61-.43A31.91,31.91,0,0,1,22.1,5.48Zm-.12,58c-.31-.33-.62-.65-.92-1A31.35,31.35,0,0,1,15.78,54a.92.92,0,0,0-1-.65c-1.64.05-3.28.06-4.92.08-.16,0-.37-.06-.45.09s.12.32.22.45a31.33,31.33,0,0,0,8.93,7.82A18.57,18.57,0,0,0,22,63.45Z"/></g></g></g></svg>