<?xml version="1.0" encoding="utf-8"?>
<!-- Generator: Adobe Illustrator 21.1.0, SVG Export Plug-In . SVG Version: 6.00 Build 0)  -->
<svg version="1.1" id="Calque_1" xmlns="http://www.w3.org/2000/svg" xmlns:xlink="http://www.w3.org/1999/xlink" x="0px" y="0px"
	 viewBox="0 0 23 23.5" style="enable-background:new 0 0 23 23.5;" xml:space="preserve">
<style type="text/css">
	.st0{fill:none;stroke:#FFFFFF;stroke-miterlimit:10;}
</style>
<title>little-search</title>
<g id="Calque_2">
	<g id="Calque_1-2">
		<g id="ZqXxAb.tif">
			<path class="st0" d="M12.3,5.8H13l0.6,0.1c0.8,0.1,1.6,0.4,2.3,0.8c0.9,0.5,1.7,1.2,2.2,2.1c0.7,1.1,1,2.4,1,3.6
				c0,0.6-0.1,1.2-0.3,1.8c-0.5,1.4-1.5,2.7-2.8,3.4c-1.3,0.8-2.8,1.1-4.3,0.8c-0.6-0.1-1.2-0.3-1.8-0.6c0,0-0.1,0-0.2,0l-0.7,0.8
				L7,20.6c-0.2,0.3-0.6,0.6-1,0.7H5.8H5.4c-0.2,0-0.5-0.1-0.7-0.2c-0.5-0.3-0.8-0.8-0.8-1.4c0-0.5,0.2-0.9,0.6-1.3
				c0.9-0.9,1.8-1.7,2.6-2.6c0,0,0.1-0.1,0-0.2c0,0,0,0,0,0c-0.3-0.5-0.5-1-0.7-1.6c-0.2-0.8-0.3-1.7-0.2-2.5
				c0.1-0.9,0.4-1.8,0.9-2.5c0.4-0.7,1-1.3,1.6-1.8c0.8-0.6,1.8-1.1,2.9-1.2C11.8,5.9,12.1,5.8,12.3,5.8z M12.6,8.7
				c-2,0-3.5,1.6-3.5,3.6s1.6,3.5,3.6,3.5c2,0,3.5-1.6,3.5-3.6C16.2,10.3,14.7,8.7,12.6,8.7C12.7,8.7,12.7,8.7,12.6,8.7z"/>
		</g>
	</g>
</g>
</svg>
