<svg xmlns="http://www.w3.org/2000/svg" viewBox="0 0 23 23.54"><defs><style>.cls-1{fill:none;stroke:#fff;stroke-miterlimit:10;}</style></defs><title>little-search</title><g id="Calque_2" data-name="Calque 2"><g id="Calque_1-2" data-name="Calque 1"><g id="ZqXxAb.tif"><path class="cls-1" d="M12.69.5h.94l.87.11a9.16,9.16,0,0,1,3.32,1.12,9.06,9.06,0,0,1,3.25,3.09,9.26,9.26,0,0,1,1.43,5.3A9.37,9.37,0,0,1,22,12.8a9.13,9.13,0,0,1-4.06,5A9.35,9.35,0,0,1,11.64,19,9.08,9.08,0,0,1,9,18.18a.18.18,0,0,0-.25,0L7.69,19.3,5,22a2.91,2.91,0,0,1-1.43,1L3.19,23h-.5a3.21,3.21,0,0,1-1-.36A2.36,2.36,0,0,1,.5,20.58a2.5,2.5,0,0,1,.83-1.83c1.28-1.26,2.55-2.54,3.82-3.81a.18.18,0,0,0,0-.26,9,9,0,0,1-1-2.35,9.53,9.53,0,0,1-.26-3.67A9.27,9.27,0,0,1,5.17,5,9.17,9.17,0,0,1,7.49,2.42,9.29,9.29,0,0,1,11.7.63C12,.58,12.36.54,12.69.5Zm.46,4.16a5.17,5.17,0,1,0,5.2,5.15A5.12,5.12,0,0,0,13.15,4.66Z"/></g></g></g></svg>