<svg xmlns="http://www.w3.org/2000/svg" viewBox="0 0 20 32.53"><defs><style>.cls-1{fill:none;stroke:#fff;stroke-miterlimit:10;}</style></defs><title>little-location</title><g id="Calque_2" data-name="Calque 2"><g id="Calque_1-2" data-name="Calque 1"><g id="BZq8V0.tif"><path class="cls-1" d="M8.95.5h2.12a13,13,0,0,1,1.75.35A9.49,9.49,0,0,1,17.42,4a8.86,8.86,0,0,1,1.86,7.69,41,41,0,0,1-1.9,5.46c-.48,1.21-1,2.39-1.56,3.57-.83,1.79-1.7,3.56-2.58,5.32q-1.53,3-3.18,6H10c-.39-.72-.8-1.44-1.18-2.16-.78-1.48-1.58-3-2.33-4.46-.92-1.82-1.78-3.67-2.61-5.53a65.49,65.49,0,0,1-2.6-6.41A11.38,11.38,0,0,1,.52,9.15a8.87,8.87,0,0,1,1.05-3.7A9.69,9.69,0,0,1,3.62,2.89,9.07,9.07,0,0,1,7.76.72C8.15.63,8.55.59,8.95.5ZM10,7A2.85,2.85,0,0,0,7.09,9.77a2.88,2.88,0,1,0,5.76,0A2.84,2.84,0,0,0,10,7Z"/></g></g></g></svg>