<svg xmlns="http://www.w3.org/2000/svg" viewBox="0 0 150.56 154.42"><defs><style>.cls-1,.cls-2,.cls-4{fill:none;stroke:#fff;stroke-miterlimit:10;}.cls-1{stroke-width:3px;}.cls-2,.cls-4{stroke-width:5px;}.cls-3{fill:#fff;}.cls-4{stroke-linecap:round;}</style></defs><title>logo</title><g id="Calque_2" data-name="Calque 2"><g id="Calque_1-2" data-name="Calque 1"><path class="cls-1" d="M22.75,95.84"/><path class="cls-2" d="M106.75,106.82A24.8,24.8,0,0,0,121,64.13,34.15,34.15,0,1,0,54.2,53.75,24.82,24.82,0,0,0,18.73,76.16c0,.67,0,1.33.09,2"/><path class="cls-3" d="M53.69,53.35A34.11,34.11,0,0,1,68.36,25.74,22.42,22.42,0,1,0,33.61,52.81a24.84,24.84,0,0,1,20.08.54Z"/><line class="cls-4" x1="23.38" y1="49.46" x2="15.12" y2="54.24"/><line class="cls-4" x1="20.54" y1="29.98" x2="11.19" y2="28.02"/><line class="cls-4" x1="33.43" y1="13.56" x2="28.65" y2="5.29"/><line class="cls-4" x1="58.2" y1="11.32" x2="61.86" y2="2.5"/><line class="cls-4" x1="18.73" y1="88.77" x2="87.98" y2="88.77"/><path class="cls-4" d="M88,75.71a6.53,6.53,0,0,1,0,13.05"/><line class="cls-4" x1="30.51" y1="105.96" x2="74.89" y2="105.96"/><path class="cls-4" d="M74.89,119c3.12,0,5.65-2.92,5.65-6.53S78,106,74.89,106"/><line class="cls-4" x1="24.84" y1="97.29" x2="85.03" y2="97.29"/><path class="cls-3" d="M4,148a1.22,1.22,0,0,1-1.22,1.22,2.83,2.83,0,0,1-2.19-1.08A3.93,3.93,0,0,1,0,145.58V135.25a1.21,1.21,0,0,1,2.43,0v10.89c0,.06,0,.12,0,.18s0,.12,0,.18a.33.33,0,0,0,.32.34A1.21,1.21,0,0,1,4,148Z"/><path class="cls-3" d="M13.41,144.92H7.24a2.64,2.64,0,0,0,2.55,2,3.35,3.35,0,0,0,2.1-.76,1.2,1.2,0,0,1,1.7,0,1.19,1.19,0,0,1,0,1.7,5.58,5.58,0,0,1-3.79,1.42,5,5,0,0,1,0-10.06,4.38,4.38,0,0,1,.88.08,4.85,4.85,0,0,1,3.25,2.31,3.87,3.87,0,0,1,.64,2,1.69,1.69,0,0,1-.16.58A1.09,1.09,0,0,1,13.41,144.92Zm-5.83-2h4.25a2.23,2.23,0,0,0-2-1.2A2.6,2.6,0,0,0,7.58,142.89Z"/><path class="cls-3" d="M26.52,148a1.19,1.19,0,0,1-1.2,1.2,4.53,4.53,0,0,1-.52,0,2.9,2.9,0,0,1-1.76-.9,3,3,0,0,1-.68-1.8v-5.05h-.86a1.2,1.2,0,0,1,0-2.41h.86v-3.83a1.2,1.2,0,0,1,2.41,0V139h.66a1.2,1.2,0,0,1,0,2.41h-.66v4.77c0,.16,0,.4.14.52s.28.08.42.08A1.21,1.21,0,0,1,26.52,148Z"/><path class="cls-3" d="M36.06,144.92H29.89a2.64,2.64,0,0,0,2.55,2,3.35,3.35,0,0,0,2.1-.76,1.2,1.2,0,0,1,1.7,0,1.19,1.19,0,0,1,0,1.7,5.58,5.58,0,0,1-3.79,1.42,5,5,0,0,1,0-10.06,4.38,4.38,0,0,1,.88.08,4.85,4.85,0,0,1,3.25,2.31,3.87,3.87,0,0,1,.64,2,1.69,1.69,0,0,1-.16.58A1.09,1.09,0,0,1,36.06,144.92Zm-5.83-2h4.25a2.23,2.23,0,0,0-2-1.2A2.6,2.6,0,0,0,30.23,142.89Z"/><path class="cls-3" d="M51.74,143.13v4.93a1.18,1.18,0,0,1-1.18,1.2,1.21,1.21,0,0,1-1.22-1.2v-5a1.46,1.46,0,0,0-1.52-1.38,1.48,1.48,0,0,0-1.58,1.38v5a1.19,1.19,0,1,1-2.39,0v-5a1.58,1.58,0,0,0-3.13,0v5.05a1.19,1.19,0,0,1-1.2,1.18,1.22,1.22,0,0,1-1.2-1.18v-7.66a1.24,1.24,0,0,1,1.2-1.22,1.12,1.12,0,0,1,.92.48,4.1,4.1,0,0,1,1.84-.44A4.05,4.05,0,0,1,45,140.37a4,4,0,0,1,6.7,2.71Z"/><path class="cls-3" d="M63.87,144.28a5.08,5.08,0,0,1-5.07,5.07,5.26,5.26,0,0,1-2.83-.84v4.69a1.21,1.21,0,1,1-2.43,0V140.45a1.21,1.21,0,0,1,1.22-1.2,1.24,1.24,0,0,1,1.16.84,5,5,0,0,1,2.87-.88A5.08,5.08,0,0,1,63.87,144.28Zm-2.43,0a2.65,2.65,0,1,0-2.65,2.65A2.66,2.66,0,0,0,61.44,144.28Z"/><path class="cls-3" d="M68.76,149.31a5,5,0,0,1-3.23-1.14,1.2,1.2,0,0,1,1.62-1.76,2.47,2.47,0,0,0,2.47.3.66.66,0,0,0,.32-.56.66.66,0,0,0-.44-.56,2.07,2.07,0,0,0-.86-.1,4.58,4.58,0,0,1-1.58-.22,3,3,0,0,1-2-2.47,3,3,0,0,1,.9-2.49,4.26,4.26,0,0,1,3.53-.88,3.59,3.59,0,0,1,1.9.88A1.2,1.2,0,0,1,71.5,142a1.22,1.22,0,0,1-1,.38,1.25,1.25,0,0,1-.52-.18,1.82,1.82,0,0,0-.84-.4c-.6-.1-1.72-.06-1.64.8a.79.79,0,0,0,.36.42,3.25,3.25,0,0,0,.82.06,4.65,4.65,0,0,1,1.84.32,3.06,3.06,0,0,1,1.82,2.75,3.11,3.11,0,0,1-1.38,2.57A3.92,3.92,0,0,1,68.76,149.31Z"/><path class="cls-3" d="M90.65,153.2a1.21,1.21,0,0,1-1.2,1.2,2.82,2.82,0,0,1-2.77-2.87v-3.17a5,5,0,1,1,.06-8.3,1.19,1.19,0,0,1,1.14-.84,1.21,1.21,0,0,1,1.2,1.2v11a1.32,1.32,0,0,1,0,.28.35.35,0,0,0,.34.34A1.19,1.19,0,0,1,90.65,153.2Zm-4.13-9a2.61,2.61,0,1,0-2.61,2.61A2.61,2.61,0,0,0,86.52,144.2Z"/><path class="cls-3" d="M96,149.33a4.92,4.92,0,0,1-4.75-5v-3.83a1.17,1.17,0,0,1,1.12-1.2,1.27,1.27,0,0,1,1.26,1.2v3.83A2.59,2.59,0,0,0,96,146.9a2.47,2.47,0,0,0,2.39-2.61v-3.67a1.31,1.31,0,0,1,1.24-1.2,1.17,1.17,0,0,1,1.14,1.2v3.67A4.92,4.92,0,0,1,96,149.33Z"/><path class="cls-3" d="M105.28,135.53a23.17,23.17,0,0,1-1.88,4.75l-1.12.14a28.36,28.36,0,0,0,1.18-4.71Z"/><path class="cls-3" d="M108,137.5a1.25,1.25,0,0,1-1.26-1.22v-.1a1.24,1.24,0,1,1,2.49,0v.1A1.24,1.24,0,0,1,108,137.5Zm0,11.77a1.25,1.25,0,0,1-1.26-1.24v-7.74a1.24,1.24,0,0,1,2.49,0V148A1.25,1.25,0,0,1,108,149.27Z"/><path class="cls-3" d="M115.3,148a1.22,1.22,0,0,1-1.22,1.22,2.83,2.83,0,0,1-2.19-1.08,3.93,3.93,0,0,1-.56-2.61V135.25a1.21,1.21,0,0,1,2.43,0v10.89c0,.06,0,.12,0,.18s0,.12,0,.18a.33.33,0,0,0,.32.34A1.21,1.21,0,0,1,115.3,148Z"/><path class="cls-3" d="M128.87,136.74a1.25,1.25,0,0,1-1.72.06,1.52,1.52,0,0,0-1-.42,1.54,1.54,0,0,0-1.52,1.56v2.49h1.9a1.21,1.21,0,1,1,0,2.43h-1.9v5.09a1.23,1.23,0,0,1-2.47,0v-10a4,4,0,0,1,6.7-2.93A1.25,1.25,0,0,1,128.87,136.74Z"/><path class="cls-3" d="M138.74,140.39v7.68a1.15,1.15,0,0,1-1.16,1.14,1.06,1.06,0,0,1-1.06-1.14v-.24a4.58,4.58,0,0,1-3.07,1.18,4.84,4.84,0,1,1,0-9.68,4.76,4.76,0,0,1,3.07,1.16v-.1a1.06,1.06,0,0,1,1.06-1.14A1.15,1.15,0,0,1,138.74,140.39ZM136,144.18a2.52,2.52,0,1,0-2.51,2.49A2.52,2.52,0,0,0,136,144.18Z"/><path class="cls-3" d="M142.08,137.5a1.25,1.25,0,0,1-1.26-1.22v-.1a1.24,1.24,0,1,1,2.49,0v.1A1.24,1.24,0,0,1,142.08,137.5Zm0,11.77a1.25,1.25,0,0,1-1.26-1.24v-7.74a1.24,1.24,0,0,1,2.49,0V148A1.25,1.25,0,0,1,142.08,149.27Z"/><path class="cls-3" d="M150.46,148a1.19,1.19,0,0,1-1.2,1.2,4.53,4.53,0,0,1-.52,0,2.9,2.9,0,0,1-1.76-.9,3,3,0,0,1-.68-1.8v-5.05h-.86a1.2,1.2,0,1,1,0-2.41h.86v-3.83a1.2,1.2,0,0,1,2.41,0V139h.66a1.2,1.2,0,0,1,0,2.41h-.66v4.77c0,.16,0,.4.14.52s.28.08.42.08A1.21,1.21,0,0,1,150.46,148Z"/></g></g></svg>