<svg xmlns="http://www.w3.org/2000/svg" viewBox="0 0 197.95 152.55"><defs><style>.cls-1{fill:#fff;}.cls-2{fill:none;stroke:#fff;stroke-miterlimit:10;stroke-width:5px;}</style></defs><title>logo</title><g id="Calque_2" data-name="Calque 2"><g id="Calque_1-2" data-name="Calque 1"><path class="cls-1" d="M0,127H2.75v16.23q0,1,1,1h1v2.67H3.51A3.87,3.87,0,0,1,1,146.05a3.13,3.13,0,0,1-1-2.65Z"/><path class="cls-1" d="M9.26,140.83a3.37,3.37,0,0,0,1,2.59,3.12,3.12,0,0,0,2.32.9,4.06,4.06,0,0,0,3-1.38l2,1.76A6.37,6.37,0,0,1,12.6,147a6.92,6.92,0,0,1-2.11-.33,5,5,0,0,1-1-.48,4.83,4.83,0,0,1-1-.64,5.63,5.63,0,0,1-1.41-2.21,9,9,0,0,1-.59-3.54A10.15,10.15,0,0,1,7,136.31a6.11,6.11,0,0,1,1.32-2.23,4.89,4.89,0,0,1,1.83-1.2,5.72,5.72,0,0,1,2-.37,5.6,5.6,0,0,1,4,1.59,5.9,5.9,0,0,1,1.68,4.39v2.34Zm5.79-2.34A3.69,3.69,0,0,0,14.2,136a2.73,2.73,0,0,0-2-.81,2.73,2.73,0,0,0-2,.81,3.87,3.87,0,0,0-.86,2.51Z"/><path class="cls-1" d="M28,128.38h2.75v4.31h2v2.18h-2v8.25q0,1.08,1,1h1v2.67H31.32A3.2,3.2,0,0,1,29,145.9a3.33,3.33,0,0,1-.95-2.56v-8.48H26.62v-2.18H28Z"/><path class="cls-1" d="M37.66,140.83a3.37,3.37,0,0,0,1,2.59,3.12,3.12,0,0,0,2.32.9,4.06,4.06,0,0,0,3-1.38l2,1.76A6.37,6.37,0,0,1,41,147a6.92,6.92,0,0,1-2.11-.33,5,5,0,0,1-1-.48,4.83,4.83,0,0,1-1-.64,5.63,5.63,0,0,1-1.41-2.21,9,9,0,0,1-.59-3.54,10.15,10.15,0,0,1,.51-3.49,6.11,6.11,0,0,1,1.32-2.23,4.89,4.89,0,0,1,1.83-1.2,5.72,5.72,0,0,1,2-.37,5.6,5.6,0,0,1,4,1.59,5.9,5.9,0,0,1,1.68,4.39v2.34Zm5.79-2.34a3.69,3.69,0,0,0-.86-2.51,3,3,0,0,0-4.07,0,3.87,3.87,0,0,0-.86,2.51Z"/><path class="cls-1" d="M49.43,132.68h2.75v1.5h.05a4.58,4.58,0,0,1,3.69-1.68,5.28,5.28,0,0,1,2.37.5,7.1,7.1,0,0,1,1.62,1.35,5.57,5.57,0,0,1,4.46-1.85,4.85,4.85,0,0,1,3.22,1.24,4.76,4.76,0,0,1,1.5,3.68v9.4H66.35V138.4a3,3,0,0,0-.79-2.27,2.76,2.76,0,0,0-2-.79,2.8,2.8,0,0,0-2.05.79,3,3,0,0,0-.82,2.27v8.43H57.9V138.4a3,3,0,0,0-.79-2.27,2.8,2.8,0,0,0-2.05-.79,2.76,2.76,0,0,0-2,.79,3,3,0,0,0-.83,2.27v8.43H49.43Z"/><path class="cls-1" d="M73.32,132.68h2.75v1.47a4.67,4.67,0,0,1,3.54-1.65,4.22,4.22,0,0,1,3.68,1.85,3.78,3.78,0,0,1,.78,1.76,23.13,23.13,0,0,1,.2,3.65,22.72,22.72,0,0,1-.2,3.6,4,4,0,0,1-.78,1.79,4.15,4.15,0,0,1-1.49,1.31,4.67,4.67,0,0,1-2.19.53,3.73,3.73,0,0,1-1.89-.47,6,6,0,0,1-1.65-1.19v7.23H73.32Zm5.46,11.47a2.73,2.73,0,0,0,1.54-.38,2.16,2.16,0,0,0,.81-1,5.42,5.42,0,0,0,.36-1.42q0-.77,0-1.57t0-1.65a5.09,5.09,0,0,0-.36-1.42,2,2,0,0,0-.81-1,3,3,0,0,0-1.54-.34,2.43,2.43,0,0,0-1.47.4,2.32,2.32,0,0,0-.83,1,5.39,5.39,0,0,0-.33,1.39q-.08.79-.08,1.6a14.37,14.37,0,0,0,.08,1.5,5.44,5.44,0,0,0,.33,1.44,2.31,2.31,0,0,0,.83,1A2.37,2.37,0,0,0,78.78,144.16Z"/><path class="cls-1" d="M88.21,142.51a5.65,5.65,0,0,0,4.34,1.81,3.58,3.58,0,0,0,1.95-.48,1.5,1.5,0,0,0,.75-1.34,1.18,1.18,0,0,0-.45-1.06,2.31,2.31,0,0,0-1.23-.34l-2.43-.22a4.56,4.56,0,0,1-2.82-1.2,3.69,3.69,0,0,1-1.14-2.82,3.88,3.88,0,0,1,1.49-3.27,5.79,5.79,0,0,1,3.62-1.09,10.64,10.64,0,0,1,1.7.12,8.23,8.23,0,0,1,1.41.38,8,8,0,0,1,2.27,1.43L96,136.5a8.46,8.46,0,0,0-1.68-1,5.47,5.47,0,0,0-2-.34,2.67,2.67,0,0,0-1.81.48,1.56,1.56,0,0,0-.54,1.23,1,1,0,0,0,.41.83,2.34,2.34,0,0,0,1.4.5l2.27.18a4.2,4.2,0,0,1,3.09,1.34,4.61,4.61,0,0,1,.89,2.91,3.71,3.71,0,0,1-1.62,3.18A6.88,6.88,0,0,1,92.32,147a8.57,8.57,0,0,1-6-2.53Z"/><path class="cls-1" d="M115.59,145.32a6.62,6.62,0,0,1-1.6,1.19,4.08,4.08,0,0,1-1.94.47,4.45,4.45,0,0,1-2.14-.53,4.65,4.65,0,0,1-1.54-1.31,3.76,3.76,0,0,1-.75-1.79,20.12,20.12,0,0,1-.22-3.6,20.42,20.42,0,0,1,.22-3.65,3.58,3.58,0,0,1,.75-1.76,4.22,4.22,0,0,1,3.68-1.84,4.64,4.64,0,0,1,3.53,1.65v-1.47h2.75v19.87h-2.75Zm-2.71-1.17a2.59,2.59,0,0,0,1.54-.41,2,2,0,0,0,.78-1,4.8,4.8,0,0,0,.36-1.44q0-.75,0-1.5t0-1.6a4.74,4.74,0,0,0-.36-1.39,2,2,0,0,0-.78-1,2.66,2.66,0,0,0-1.54-.4,2.7,2.7,0,0,0-1.49.34,2.15,2.15,0,0,0-.83,1,5.07,5.07,0,0,0-.33,1.42q-.08.81-.08,1.65a15.29,15.29,0,0,0,.08,1.57,5.38,5.38,0,0,0,.33,1.42,2.34,2.34,0,0,0,.83,1A2.47,2.47,0,0,0,112.88,144.16Z"/><path class="cls-1" d="M122.38,132.68h2.75v8.43a3.08,3.08,0,0,0,.78,2.24,2.58,2.58,0,0,0,2,.81,2.54,2.54,0,0,0,1.94-.81,3.11,3.11,0,0,0,.77-2.24v-8.43h2.75v14.14h-2.75v-1.51h-.05A4.35,4.35,0,0,1,127,147a4.56,4.56,0,0,1-3.07-1.28,4.48,4.48,0,0,1-1.52-3.62Z"/><path class="cls-1" d="M137.45,127h2.75v2.85l-2.75,2.06Z"/><path class="cls-1" d="M144.14,127h2.75v2.83h-2.75Zm0,5.72h2.75v14.14h-2.75Z"/><path class="cls-1" d="M150.75,127h2.75v16.23q0,1,1,1h1v2.67h-1.23a3.87,3.87,0,0,1-2.48-.77,3.13,3.13,0,0,1-1-2.65Z"/><path class="cls-1" d="M165.07,134.86h-1.39v-2.18h1.39v-1.87a3.76,3.76,0,0,1,1.08-3,4,4,0,0,1,2.65-.89h1.78v2.67H169q-1.25,0-1.19,1.18v1.88h2.76v2.18h-2.76v12h-2.75Z"/><path class="cls-1" d="M179.58,145.57h-.05a2.32,2.32,0,0,1-1.19,1.06,5.49,5.49,0,0,1-2.19.35,4.91,4.91,0,0,1-3.54-1.25,4,4,0,0,1-1.31-3.07,4.08,4.08,0,0,1,1.13-3,4.44,4.44,0,0,1,3.32-1.23h3.81V137q0-1.87-2.81-1.82a4.83,4.83,0,0,0-1.62.22,2,2,0,0,0-1,.88L172,134.57a5.27,5.27,0,0,1,4.63-2.06,7.16,7.16,0,0,1,4.13,1,4.17,4.17,0,0,1,1.57,3.65v9.66h-2.75Zm0-4.74h-3.31q-2.41.05-2.38,1.7a1.53,1.53,0,0,0,.62,1.23,2.83,2.83,0,0,0,2,.56,4.71,4.71,0,0,0,2.45-.42q.65-.45.65-2Z"/><path class="cls-1" d="M186.42,127h2.75v2.83h-2.75Zm0,5.72h2.75v14.14h-2.75Z"/><path class="cls-1" d="M193.19,128.38h2.75v4.31h2v2.18h-2v8.25q0,1.08,1,1h1v2.67h-1.44a3.2,3.2,0,0,1-2.37-.93,3.33,3.33,0,0,1-.95-2.56v-8.48h-1.38v-2.18h1.38Z"/><path class="cls-1" d="M123.71,2.5A51.93,51.93,0,0,0,100,8.21c.49.33,1,.67,1.44,1A33,33,0,0,1,136.56,64.1,33,33,0,0,1,91.62,86.19a33.27,33.27,0,0,1-5,5.09A52.15,52.15,0,1,0,123.71,2.5Z"/><path class="cls-2" d="M147.46,39.58A33,33,0,0,0,101.39,9.24a33,33,0,0,0-48.08,8.93,33,33,0,0,0-18.1,60,33,33,0,0,0,56.41,8A33,33,0,0,0,136.56,64.1,32.94,32.94,0,0,0,147.46,39.58Z"/></g></g></svg>