<svg xmlns="http://www.w3.org/2000/svg" viewBox="0 0 275.09 176.27"><defs><style>.cls-1,.cls-2{fill:#fff;}.cls-2{opacity:0.5;}</style></defs><title>rotate-phone</title><g id="Calque_2" data-name="Calque 2"><g id="Calque_1-2" data-name="Calque 1"><g id="_9sKd4R.tif" data-name="9sKd4R.tif"><path class="cls-1" d="M275.08,87.93q0,35.72,0,71.45c0,11.75-4.95,16.66-16.63,16.68q-29,.06-58,.12c-9.79,0-15.49-5.54-15.5-15.41q-.08-72.94,0-145.88C185,5.61,190.71,0,199.95,0q30.23,0,60.46,0C269.56,0,275,5.25,275,14.48c.1,24.48,0,49,0,73.45Zm-83.13-.41c0,17.81.07,35.63-.07,53.44,0,3.21.81,4.24,4.13,4.22q34.21-.21,68.42,0c3.5,0,4.12-1.27,4.11-4.33q-.11-52.94,0-105.88c0-3.42-.91-4.61-4.47-4.58q-33.71.21-67.42,0c-3.58,0-4.87.8-4.82,4.68C192.07,52.56,191.95,70,191.95,87.53Zm47,72.64a8.75,8.75,0,1,0-17.5-.36c-.06,4.68,4.28,9.15,8.82,9.08A9.2,9.2,0,0,0,238.9,160.16ZM229.55,18.1H236c1.23,0,2.54-.18,2.65-1.62.13-1.7-1.25-2.24-2.66-2.26-3.82-.07-7.65-.05-11.47,0-1.45,0-2.76.49-2.83,2.13-.09,2,1.53,1.78,2.84,1.79C226.23,18.12,227.89,18.1,229.55,18.1Z"/><path class="cls-2" d="M87.93,86.13q35.72,0,71.45,0c11.75,0,16.66,4.95,16.68,16.63q.06,29,.12,58c0,9.79-5.54,15.49-15.41,15.5q-72.94.08-145.88,0c-9.28,0-14.86-5.74-14.87-15Q0,131,0,100.81c0-9.16,5.23-14.59,14.47-14.63,24.48-.1,49,0,73.45,0Zm-.41,83.13c17.81,0,35.63-.07,53.44.07,3.21,0,4.24-.81,4.22-4.13q-.21-34.21,0-68.42c0-3.5-1.27-4.12-4.33-4.11q-52.94.11-105.88,0c-3.42,0-4.61.91-4.58,4.47q.21,33.71,0,67.42c0,3.58.8,4.87,4.68,4.82C52.56,169.13,70,169.26,87.53,169.26Zm72.64-47a8.75,8.75,0,1,0-.36,17.5c4.68.06,9.15-4.28,9.08-8.82A9.2,9.2,0,0,0,160.16,122.31ZM18.1,131.66q0-3.24,0-6.48c0-1.23-.18-2.54-1.62-2.65-1.7-.13-2.24,1.25-2.26,2.66-.07,3.82-.05,7.65,0,11.47,0,1.45.49,2.76,2.13,2.83,2,.09,1.78-1.53,1.79-2.84C18.12,135,18.1,133.32,18.1,131.66Z"/><path class="cls-1" d="M171.08,26.39,159,47.73c-1.46-.35-1.48-1.5-1.81-2.26-3.42-7.77-3.51-8-10.74-3.79-12.37,7.14-18.27,18.38-19.54,32.3-.44,4.87-2.48,6.33-7.31,5-2.81-.75-1.67-3-1.55-4.48,1.54-18.28,9.7-32.58,25.83-41.84,6.35-3.65,6.41-3.52,3.81-10.32-.23-.6-.42-1.21-.92-2.68Z"/></g></g></g></svg>