<svg xmlns="http://www.w3.org/2000/svg" viewBox="0 0 62.51 42.42"><defs><style>.cls-1{fill:#fff;}</style></defs><title>sunrise</title><g id="Calque_2" data-name="Calque 2"><g id="Calque_1-2" data-name="Calque 1"><g id="QNmFFW.tif"><path class="cls-1" d="M0,40a2.62,2.62,0,0,1,2.36-1.06c5.38,0,10.76,0,16.13,0a2.57,2.57,0,0,0,1.83-.69c3.27-2.84,6.57-5.64,9.84-8.48a.9.9,0,0,1,1.42,0c3.26,2.85,6.57,5.64,9.84,8.48a2.7,2.7,0,0,0,1.92.69c5.26,0,10.53,0,15.79,0a3.44,3.44,0,0,1,3.24,1.58c0,.62.24,1.49-.07,1.8s-1.18.07-1.8.07H40.83q-4.55-3.81-9.1-7.62a.66.66,0,0,0-1,0q-4.53,3.83-9.09,7.63c-7,0-13.95,0-20.92,0-.6,0-.74-.14-.68-.71A16.18,16.18,0,0,0,0,40Z"/><path class="cls-1" d="M31.48,0a1.81,1.81,0,0,1,1.17,1.8c0,2.06,0,4.12,0,6.18a1.75,1.75,0,0,1-1.06,1.77,1.62,1.62,0,0,1-1.74-.31A1.7,1.7,0,0,1,29.21,8c0-2.09,0-4.18,0-6.27A1.83,1.83,0,0,1,30.29,0Z"/><path class="cls-1" d="M0,30.26a2.31,2.31,0,0,1,2.16-1.08c2,0,3.91,0,5.86,0a1.68,1.68,0,0,1,1.69,2.35,1.58,1.58,0,0,1-1.51,1.06c-2.21,0-4.41,0-6.62,0a1.87,1.87,0,0,1-1.58-1Z"/><path class="cls-1" d="M16.36,30.73c0,2.09.29,1.91-1.88,1.92-.23,0-.45,0-.68,0-.65,0-.88-.24-.9-.9a18.19,18.19,0,0,1,13-18.06,18,18,0,0,1,22.62,14,22.72,22.72,0,0,1,.35,4.14c0,.58-.22.84-.8.82s-1.13,0-1.7,0c-.74,0-1-.28-1-1a14.47,14.47,0,0,0-1.16-6.46,14,14,0,0,0-11.5-8.67,14.47,14.47,0,0,0-16.29,12.6C16.38,29.65,16.39,30.19,16.36,30.73Z"/><path class="cls-1" d="M57.26,29.19c1,0,2,0,3.06,0,1.19,0,1.81.62,1.82,1.67a1.64,1.64,0,0,1-1.83,1.77q-3.1,0-6.2,0a1.68,1.68,0,0,1-1.84-1.7,1.85,1.85,0,0,1,1.93-1.74h3.06Z"/><path class="cls-1" d="M10.29,8.61a1.67,1.67,0,0,1,1.28.57c1.46,1.46,2.93,2.91,4.37,4.38A1.69,1.69,0,1,1,13.62,16c-1.55-1.48-3.06-3-4.55-4.56a1.57,1.57,0,0,1-.3-2A1.55,1.55,0,0,1,10.29,8.61Z"/><path class="cls-1" d="M53.25,10.27a2.23,2.23,0,0,1-.68,1.38c-1.46,1.46-2.91,2.93-4.38,4.38a1.65,1.65,0,0,1-2.36,0,1.56,1.56,0,0,1-.09-2.34c1.53-1.59,3.1-3.14,4.68-4.68a1.56,1.56,0,0,1,1.89-.23A1.76,1.76,0,0,1,53.25,10.27Z"/></g></g></g></svg>