<svg xmlns="http://www.w3.org/2000/svg" viewBox="0 0 78 68.72"><defs><style>.cls-1{fill:#fff;}</style></defs><title>weather</title><g id="Calque_2" data-name="Calque 2"><g id="Calque_1-2" data-name="Calque 1"><g id="cc9IJ2.tif"><path class="cls-1" d="M0,34a18.52,18.52,0,0,1,.5-2.67,14.82,14.82,0,0,1,7.41-9.21,14.43,14.43,0,0,1,5.28-1.64c.34,0,.69-.06,1-.07.6,0,.61,0,.6-.63a17.32,17.32,0,0,1,.65-5.3A19.32,19.32,0,0,1,28.95.77,17.91,17.91,0,0,1,35.42,0,19.41,19.41,0,0,1,53,13.74c.11.36.11.36.46.24A18.08,18.08,0,0,1,60.6,13,18.63,18.63,0,0,1,76.86,25.2,18,18,0,0,1,78,32.66a18.67,18.67,0,0,1-13.3,16.75.33.33,0,0,1-.44-.14,14.83,14.83,0,0,0-2.46-2.8c-.06-.05-.17-.1-.14-.2s.15-.07.23-.09a14.71,14.71,0,0,0,11.6-9.92,13,13,0,0,0,.74-4.15A14.48,14.48,0,0,0,69.63,20.9a14.28,14.28,0,0,0-8.38-4,14.48,14.48,0,0,0-8.42,1.43c-.75.37-1.5.77-2.24,1.15-.3.15-.32.13-.37-.2a30.4,30.4,0,0,0-.92-4.6,15.5,15.5,0,0,0-7.12-8.82,15,15,0,0,0-6.48-2A15.4,15.4,0,0,0,24.78,7,15.64,15.64,0,0,0,18.9,22.52c.12.64.22,1.27.32,1.91.06.34,0,.35-.29.3-.93-.15-1.87-.31-2.8-.43A10.26,10.26,0,0,0,10.7,25,10.81,10.81,0,0,0,4,32.82,11,11,0,0,0,8.55,44.44c.3.21.3.21.08.5a5.29,5.29,0,0,0-1.13,3c0,.22-.05.31-.28.16a14.83,14.83,0,0,1-7-10.27c-.08-.42-.12-.84-.17-1.26Z"/><path class="cls-1" d="M50.7,68.72a12.88,12.88,0,0,1-2.37-.54,10.9,10.9,0,0,1-6.74-6.81,1.88,1.88,0,0,1,3.54-1.28,8,8,0,0,0,1.84,3A6.53,6.53,0,0,0,51.85,65a7.56,7.56,0,0,0,7-4.74,7.36,7.36,0,0,0-5.74-9.93,9.73,9.73,0,0,0-1.5-.1H13.2a3.11,3.11,0,0,1-.69,0,1.85,1.85,0,0,1-1.43-2,1.78,1.78,0,0,1,1.85-1.74H51.78A11,11,0,0,1,60.18,50a10.71,10.71,0,0,1,2.9,6.41,11.06,11.06,0,0,1-6.46,11.19,11.83,11.83,0,0,1-3.78,1.05l-.11,0Z"/><path class="cls-1" d="M25.12,68.72a8.36,8.36,0,0,1-2.53-.79,7.12,7.12,0,0,1-3.2-3.24,1.74,1.74,0,0,1,.32-2.09,2,2,0,0,1,2.18-.46,2.07,2.07,0,0,1,.94,1,3.39,3.39,0,0,0,2,1.66,3.68,3.68,0,1,0,1.53-7.15c-.26,0-.52,0-.78,0H9.3a1.77,1.77,0,0,1-1.93-1.68,1.79,1.79,0,0,1,1.76-2.07c5.65,0,11.31-.05,17,0A7.44,7.44,0,0,1,27,68.68l-.17,0Z"/><path class="cls-1" d="M27.28,42.75H16.69a1.76,1.76,0,0,1-1.88-1.6A1.81,1.81,0,0,1,16.62,39H37.68a4.53,4.53,0,0,0,3.91-2A4.28,4.28,0,0,0,42,32.45a4.43,4.43,0,0,0-3.69-2.64,4.56,4.56,0,0,0-4.76,2.87,1.77,1.77,0,0,1-1.93,1.25,1.94,1.94,0,0,1-1.7-1.41A1.76,1.76,0,0,1,30,31.38a8.21,8.21,0,0,1,6.78-5.3,8.35,8.35,0,0,1,5.89,15.1,8.63,8.63,0,0,1-5,1.57Z"/></g></g></g></svg>